<?xml version="1.0" encoding="UTF-8" standalone="no"?>
<!-- Created with Inkscape (http://www.inkscape.org/) -->
<svg
   xmlns:dc="http://purl.org/dc/elements/1.1/"
   xmlns:cc="http://web.resource.org/cc/"
   xmlns:rdf="http://www.w3.org/1999/02/22-rdf-syntax-ns#"
   xmlns:svg="http://www.w3.org/2000/svg"
   xmlns="http://www.w3.org/2000/svg"
   xmlns:sodipodi="http://sodipodi.sourceforge.net/DTD/sodipodi-0.dtd"
   xmlns:inkscape="http://www.inkscape.org/namespaces/inkscape"
   width="115"
   height="83"
   id="svg2"
   sodipodi:version="0.32"
   inkscape:version="0.44.1"
   version="1.0"
   sodipodi:docbase="D:\program\svg\ロゴ"
   sodipodi:docname="JT_logo.svg">
  <defs
     id="defs4" />
  <sodipodi:namedview
     id="base"
     pagecolor="#ffffff"
     bordercolor="#666666"
     borderopacity="1.0"
     gridtolerance="10000"
     guidetolerance="10"
     objecttolerance="10"
     inkscape:pageopacity="0.0"
     inkscape:pageshadow="2"
     inkscape:zoom="1.4"
     inkscape:cx="101.78571"
     inkscape:cy="93.341389"
     inkscape:document-units="px"
     inkscape:current-layer="layer1"
     inkscape:window-width="799"
     inkscape:window-height="571"
     inkscape:window-x="196"
     inkscape:window-y="60" />
  <metadata
     id="metadata7">
    <rdf:RDF>
      <cc:Work
         rdf:about="">
        <dc:format>image/svg+xml</dc:format>
        <dc:type
           rdf:resource="http://purl.org/dc/dcmitype/StillImage" />
      </cc:Work>
    </rdf:RDF>
  </metadata>
  <g
     inkscape:label="Layer 1"
     inkscape:groupmode="layer"
     id="layer1">
    <rect
       style="opacity:1;color:black;fill:white;fill-opacity:1;fill-rule:evenodd;stroke:white;stroke-width:1px;stroke-linecap:butt;stroke-linejoin:miter;marker:none;marker-start:none;marker-mid:none;marker-end:none;stroke-miterlimit:4;stroke-dasharray:none;stroke-dashoffset:0;stroke-opacity:1;visibility:visible;display:inline;overflow:visible"
       id="rect7242"
       width="115"
       height="83"
       x="0"
       y="0" />
    <path
       style="fill:#00ad7d;fill-rule:evenodd;stroke:#00ad7d;stroke-width:1px;stroke-linecap:butt;stroke-linejoin:miter;stroke-opacity:1;fill-opacity:1"
       d="M 27.544643,14.785714 L 21.071429,14.785714 C 17.521908,14.861944 17.415021,9.7786326 20.535714,9.6071427 L 56.428572,9.5178571 C 58.247199,9.509629 58.193459,15.125742 56.428571,15.142857 L 49.642858,15.142857 C 48.576871,15.125298 48.497045,16.545406 48.482144,17.50893 L 48.616072,56.080357 C 48.778598,60.279725 46.131435,63.221594 43.266536,65.255589 C 38.595868,68.037295 38.660289,67.977947 30.580356,72.464286 C 19.979799,77.605729 16.653856,77.890211 15.786284,77.627885 L 18.571427,68.982142 C 18.62135,71.36685 20.306242,70.044697 21.074056,71.797285 C 21.807551,73.471539 27.542424,73.946772 27.544643,68.491071 L 27.544643,14.785714 z "
       id="path1900"
       sodipodi:nodetypes="ccccccccccccscc" />
    <path
       style="fill:#00ad7d;fill-rule:evenodd;stroke:#00ad7d;stroke-width:1px;stroke-linecap:butt;stroke-linejoin:miter;stroke-opacity:1;fill-opacity:1"
       d="M 57.678572,5.3214285 C 56.038057,5.3953899 54.921748,10.158244 53.928571,13.178571 L 54.821428,14.607143 L 59.249529,11.478796 L 69.464286,11.482142 C 70.503795,11.495502 70.539634,12.179637 70.522274,13.087389 L 70.491072,61.660715 C 70.563397,64.229934 74.482284,64.982483 76.428571,64.071428 L 89.241072,56.616072 C 90.605925,55.753304 91.658296,55.325846 91.5625,54.517857 L 91.5625,13.089286 C 91.5841,12.176744 92.36522,11.510627 93.169644,11.526786 L 108.75,11.392857 L 108.75,5.1428571 L 57.678572,5.3214285 z "
       id="path1902"
       sodipodi:nodetypes="ccccccccccccccc" />
    <path
       sodipodi:type="arc"
       style="opacity:1;color:black;fill:#00ad7d;fill-opacity:1;fill-rule:evenodd;stroke:#00ad7d;stroke-width:1px;stroke-linecap:butt;stroke-linejoin:miter;marker:none;marker-start:none;marker-mid:none;marker-end:none;stroke-miterlimit:4;stroke-dasharray:none;stroke-dashoffset:0;stroke-opacity:1;visibility:visible;display:inline;overflow:visible"
       id="path2796"
       sodipodi:cx="13.839286"
       sodipodi:cy="42.285713"
       sodipodi:rx="8.8392859"
       sodipodi:ry="6.5196052"
       d="M 22.678572 42.285713 A 8.8392859 6.5196052 0 1 1  5,42.285713 A 8.8392859 6.5196052 0 1 1  22.678572 42.285713 z"
       transform="matrix(0.678456,0.530521,-0.55499,0.648542,28.45385,36.71602)" />
  </g>
</svg>
